<svg id="svg" xmlns="http://www.w3.org/2000/svg" xmlns:xlink="http://www.w3.org/1999/xlink" width="500" height="486.71875000000006" viewBox="0, 0, 500,486.71875000000006"><g id="svgg"><path id="path0" d="M206.030 0.287 C 200.816 0.662,190.766 3.837,189.356 5.554 C 189.160 5.794,188.789 5.990,188.533 5.990 C 188.000 5.990,186.228 7.327,183.129 10.070 C 181.943 11.120,180.861 11.979,180.725 11.979 C 180.590 11.979,180.405 12.272,180.315 12.630 C 180.225 12.988,180.044 13.281,179.913 13.281 C 179.782 13.281,179.561 13.545,179.421 13.867 C 179.172 14.444,179.026 14.720,178.426 15.755 C 178.260 16.042,178.010 16.540,177.870 16.862 C 177.731 17.184,177.497 17.448,177.350 17.448 C 177.203 17.448,177.083 17.727,177.083 18.067 C 177.083 18.408,176.908 18.832,176.693 19.010 C 176.478 19.189,176.302 19.646,176.302 20.026 C 176.302 20.406,176.144 20.949,175.950 21.231 C 175.756 21.514,175.520 22.248,175.424 22.863 C 175.329 23.478,175.140 24.181,175.004 24.425 C 174.869 24.670,174.632 25.866,174.477 27.083 C 174.323 28.301,174.066 30.264,173.905 31.445 C 173.687 33.058,173.691 34.161,173.921 35.872 C 174.090 37.126,174.347 39.264,174.491 40.625 C 174.635 41.986,174.866 43.300,175.003 43.546 C 175.141 43.792,175.333 44.664,175.429 45.485 C 175.526 46.305,175.761 47.276,175.952 47.642 C 176.143 48.008,176.303 48.717,176.309 49.219 C 176.314 49.720,176.491 50.358,176.701 50.636 C 176.911 50.914,177.083 51.515,177.083 51.971 C 177.083 52.427,177.259 52.947,177.474 53.125 C 177.689 53.303,177.865 53.713,177.865 54.036 C 177.865 54.359,178.040 54.770,178.255 54.948 C 178.470 55.126,178.646 55.595,178.646 55.990 C 178.646 56.384,178.822 56.853,179.036 57.031 C 179.251 57.210,179.427 57.561,179.427 57.813 C 179.427 58.064,179.603 58.415,179.818 58.594 C 180.033 58.772,180.208 59.130,180.208 59.388 C 180.208 59.647,180.369 60.019,180.565 60.215 C 180.761 60.411,181.004 60.832,181.105 61.150 C 181.206 61.468,181.631 62.104,182.050 62.563 C 182.470 63.022,182.813 63.609,182.813 63.868 C 182.813 64.127,182.988 64.407,183.203 64.489 C 183.418 64.572,183.594 64.790,183.594 64.975 C 183.594 65.799,187.510 69.687,189.518 70.857 C 190.270 71.294,190.885 71.737,190.885 71.840 C 190.885 71.943,191.383 72.162,191.992 72.326 C 193.939 72.852,194.892 75.056,193.762 76.418 C 193.597 76.616,193.393 77.610,193.308 78.627 L 193.153 80.477 191.929 80.314 C 190.720 80.154,190.681 80.172,188.907 81.730 C 183.977 86.061,175.985 94.440,175.478 95.812 C 175.368 96.110,175.158 96.354,175.013 96.354 C 174.868 96.354,174.678 96.639,174.591 96.986 C 174.504 97.334,174.267 97.682,174.065 97.759 C 173.863 97.837,173.698 98.065,173.698 98.267 C 173.698 98.469,173.522 98.780,173.307 98.958 C 173.092 99.137,172.917 99.488,172.917 99.740 C 172.917 99.991,172.741 100.343,172.526 100.521 C 172.311 100.699,172.135 101.043,172.135 101.285 C 172.135 101.527,171.784 102.062,171.354 102.474 C 170.924 102.886,170.573 103.312,170.573 103.421 C 170.573 103.530,169.637 105.620,168.493 108.066 C 167.349 110.512,166.334 112.829,166.237 113.215 C 166.140 113.601,165.853 114.272,165.599 114.706 C 165.345 115.140,164.996 116.081,164.822 116.797 C 164.649 117.513,164.289 118.534,164.024 119.065 C 163.759 119.597,163.542 120.374,163.542 120.793 C 163.542 121.212,163.367 121.891,163.153 122.301 C 162.939 122.711,162.763 123.648,162.762 124.382 C 162.761 125.117,162.585 126.138,162.370 126.653 C 162.148 127.184,161.979 128.381,161.979 129.427 C 161.979 130.473,161.811 131.670,161.589 132.202 C 161.338 132.802,161.198 133.991,161.198 135.524 C 161.198 136.837,161.036 138.551,160.838 139.333 C 160.640 140.115,160.417 142.689,160.341 145.052 C 160.266 147.415,160.076 149.679,159.920 150.082 C 159.530 151.087,159.527 171.037,159.916 172.053 C 160.071 172.457,160.297 175.365,160.419 178.516 C 160.541 181.667,160.759 184.831,160.904 185.547 C 161.048 186.263,161.174 188.617,161.182 190.779 C 161.193 193.474,161.320 195.111,161.586 195.987 C 161.799 196.690,161.976 198.027,161.979 198.958 C 161.982 199.889,162.159 201.226,162.373 201.929 C 162.641 202.814,162.765 204.458,162.776 207.268 C 162.784 209.501,162.909 211.914,163.053 212.630 C 163.196 213.346,163.410 215.807,163.528 218.099 C 163.645 220.391,163.868 222.734,164.023 223.307 C 164.177 223.880,164.425 226.751,164.574 229.688 C 165.011 238.343,165.006 238.324,166.753 238.764 L 167.898 239.052 168.078 242.378 C 168.505 250.232,170.089 258.854,171.105 258.854 C 171.242 258.854,171.354 259.089,171.354 259.375 C 171.354 259.661,171.475 259.896,171.623 259.896 C 171.771 259.896,171.978 260.130,172.084 260.415 C 172.273 260.927,175.672 263.802,176.088 263.802 C 176.206 263.802,176.302 263.975,176.302 264.186 C 176.302 264.625,177.236 265.159,178.841 265.638 C 181.039 266.293,179.728 266.375,165.690 266.461 C 150.904 266.550,150.200 266.602,149.817 267.639 C 149.724 267.892,149.522 268.183,149.368 268.285 C 149.177 268.412,149.089 271.594,149.089 278.311 C 149.089 289.562,149.105 289.669,150.911 290.114 C 155.863 291.334,155.295 291.406,140.755 291.406 L 127.604 291.406 127.604 236.719 C 127.604 206.641,127.567 182.031,127.523 182.031 C 125.424 182.031,119.510 180.853,118.439 180.221 C 117.197 179.488,113.376 178.638,110.167 178.381 C 108.657 178.260,106.484 178.043,105.339 177.900 C 104.063 177.741,85.427 177.581,57.292 177.489 C 32.012 177.407,8.779 177.267,5.664 177.178 L 0.000 177.017 0.000 233.133 L 0.000 289.249 2.409 289.571 C 6.660 290.139,8.689 290.596,10.199 291.326 L 11.675 292.040 11.762 296.097 C 11.855 300.426,12.166 301.562,13.259 301.562 C 14.023 301.562,14.062 301.955,14.062 309.481 L 14.063 316.575 13.086 316.816 L 12.109 317.057 12.046 331.510 C 12.011 339.460,12.070 350.645,12.176 356.367 C 12.394 368.049,12.456 367.413,10.459 373.833 C 9.745 376.127,9.083 378.471,8.987 379.041 C 8.891 379.611,8.642 380.531,8.433 381.085 C 6.871 385.225,3.619 409.949,4.436 411.475 C 4.628 411.833,4.986 411.980,5.673 411.983 C 7.151 411.989,7.921 412.491,8.073 413.549 L 8.203 414.453 12.370 414.523 C 14.661 414.562,23.294 414.679,31.554 414.784 C 47.970 414.992,46.972 414.901,46.610 416.161 C 45.505 420.013,44.969 430.135,45.583 435.547 C 45.958 438.858,47.114 444.776,47.550 445.618 C 47.751 446.009,47.917 446.671,47.917 447.091 C 47.917 447.510,48.087 447.994,48.295 448.167 C 48.503 448.340,48.856 449.109,49.079 449.876 C 49.571 451.569,51.986 456.449,53.281 458.368 C 53.800 459.137,54.317 460.007,54.431 460.302 C 55.517 463.128,66.907 474.696,70.313 476.431 C 70.814 476.686,71.610 477.231,72.082 477.642 C 73.134 478.559,75.834 479.948,76.563 479.948 C 76.858 479.948,77.161 480.109,77.237 480.305 C 77.529 481.068,79.889 482.106,86.849 484.537 C 92.615 486.550,106.672 487.461,116.797 486.477 C 119.056 486.257,125.196 484.512,126.432 483.738 C 126.719 483.559,127.422 483.325,127.995 483.219 C 129.629 482.917,132.912 481.571,134.085 480.721 C 134.672 480.296,135.258 479.948,135.388 479.948 C 135.777 479.948,138.596 478.401,139.714 477.575 C 140.286 477.151,141.500 476.334,142.410 475.760 C 143.321 475.185,144.124 474.490,144.196 474.215 C 144.268 473.940,144.871 473.397,145.536 473.010 C 147.090 472.104,150.851 468.694,151.316 467.769 C 151.513 467.378,152.235 466.550,152.920 465.930 C 153.606 465.310,154.167 464.649,154.167 464.461 C 154.167 464.272,154.342 464.051,154.557 463.968 C 154.772 463.886,154.948 463.661,154.948 463.468 C 154.948 463.276,155.299 462.781,155.729 462.370 C 156.159 461.958,156.510 461.467,156.510 461.279 C 156.510 461.091,156.631 460.938,156.777 460.938 C 156.924 460.938,157.156 460.645,157.292 460.286 C 157.428 459.928,157.659 459.635,157.806 459.635 C 157.953 459.635,158.073 459.468,158.073 459.263 C 158.073 459.059,158.234 458.730,158.432 458.532 C 158.629 458.335,158.871 457.807,158.969 457.360 C 159.068 456.913,159.316 456.407,159.522 456.236 C 159.728 456.065,159.896 455.815,159.896 455.679 C 159.896 455.543,160.072 455.256,160.286 455.041 C 160.501 454.826,160.677 454.320,160.677 453.916 C 160.677 453.503,160.848 453.115,161.068 453.031 C 161.283 452.948,161.458 452.635,161.458 452.333 C 161.458 452.032,161.634 451.610,161.849 451.395 C 162.064 451.180,162.240 450.734,162.240 450.404 C 162.240 450.074,162.415 449.657,162.630 449.479 C 162.845 449.301,163.021 448.832,163.021 448.438 C 163.021 448.043,163.197 447.574,163.411 447.396 C 163.626 447.218,163.802 446.821,163.802 446.516 C 163.802 446.210,164.095 445.409,164.453 444.736 C 164.811 444.064,165.104 443.236,165.104 442.898 C 165.104 442.060,165.856 439.583,166.111 439.583 C 166.223 439.583,166.600 439.889,166.947 440.262 C 167.890 441.276,169.459 442.291,171.354 443.112 L 173.047 443.846 242.318 443.940 C 323.493 444.051,341.803 443.867,344.036 442.919 C 347.758 441.337,350.580 438.536,351.440 435.567 C 351.893 433.999,351.893 429.140,351.438 428.061 C 351.297 427.724,351.529 427.352,352.334 426.629 C 356.519 422.863,361.011 417.803,363.432 414.128 L 364.847 411.979 369.077 411.978 C 371.404 411.978,375.150 411.901,377.401 411.808 C 382.301 411.604,382.135 411.467,381.155 414.921 C 376.951 429.735,381.121 451.862,390.086 462.316 C 390.603 462.918,391.353 463.897,391.754 464.491 C 393.543 467.146,403.343 476.214,404.948 476.700 C 405.306 476.808,406.081 477.320,406.669 477.837 C 407.258 478.354,408.313 479.046,409.013 479.374 C 409.713 479.702,410.579 480.140,410.938 480.348 C 412.424 481.208,414.942 482.327,416.595 482.862 C 417.565 483.177,418.425 483.529,418.506 483.646 C 418.658 483.866,418.966 483.962,424.609 485.549 L 427.995 486.501 437.109 486.639 C 447.838 486.801,452.201 486.543,455.599 485.547 C 456.888 485.168,458.554 484.687,459.302 484.476 C 460.050 484.265,460.815 483.940,461.001 483.753 C 461.188 483.566,461.806 483.326,462.373 483.220 C 463.730 482.965,467.566 481.411,468.737 480.641 C 469.245 480.307,470.266 479.732,471.004 479.365 C 475.708 477.023,487.103 467.294,488.555 464.380 C 488.749 463.991,489.163 463.379,489.474 463.021 C 492.437 459.619,496.028 452.713,498.208 446.224 L 499.870 441.276 499.870 429.557 L 499.870 417.839 499.136 415.435 C 495.006 401.908,488.254 391.886,478.057 384.142 C 476.662 383.083,475.521 382.118,475.521 381.997 C 475.521 381.877,475.091 381.598,474.566 381.379 C 474.041 381.159,472.653 380.343,471.482 379.563 C 470.311 378.784,468.778 377.956,468.075 377.722 C 467.372 377.488,465.833 376.789,464.655 376.168 C 463.389 375.500,461.686 374.858,460.489 374.598 C 457.841 374.021,457.692 373.820,459.536 373.305 C 462.381 372.511,462.888 372.334,463.675 371.861 C 464.106 371.601,465.102 371.309,465.888 371.212 C 467.532 371.009,473.653 369.493,475.805 368.757 C 476.606 368.483,478.649 368.076,480.345 367.854 C 482.042 367.632,484.668 367.222,486.181 366.943 C 487.694 366.664,489.870 366.303,491.016 366.140 C 492.161 365.976,493.333 365.694,493.620 365.512 C 493.906 365.330,494.765 365.121,495.527 365.049 C 497.871 364.825,498.164 363.062,496.244 360.734 C 495.923 360.345,495.176 359.307,494.585 358.428 C 490.697 352.647,478.795 340.885,476.834 340.885 C 476.513 340.885,472.625 338.804,472.084 338.342 C 471.537 337.875,463.410 334.729,461.458 334.229 C 456.341 332.917,444.246 331.792,435.078 331.777 C 430.210 331.768,430.134 331.703,428.821 326.383 C 428.467 324.950,427.863 323.028,427.478 322.110 C 427.092 321.193,426.689 320.018,426.580 319.499 C 426.193 317.637,424.076 315.694,421.760 315.075 C 421.179 314.920,420.117 314.522,419.401 314.191 C 418.685 313.860,417.572 313.513,416.927 313.419 C 415.138 313.160,414.397 312.787,414.061 311.976 C 413.417 310.421,410.847 309.359,405.252 308.336 C 401.065 307.571,400.466 307.138,398.404 303.385 C 397.578 301.882,396.649 300.253,396.340 299.766 C 395.354 298.214,390.102 288.589,387.373 283.333 C 385.923 280.540,384.203 277.318,383.551 276.172 C 381.606 272.751,374.469 259.167,373.267 256.595 C 372.653 255.281,372.034 254.135,371.893 254.048 C 371.752 253.960,371.381 253.190,371.070 252.335 C 370.758 251.480,370.410 250.781,370.296 250.781 C 370.183 250.781,369.841 250.118,369.538 249.307 C 369.235 248.497,368.775 247.530,368.515 247.159 C 367.685 245.971,365.365 241.364,365.365 240.905 C 365.365 240.661,364.546 238.840,363.546 236.858 C 360.897 231.608,360.921 230.704,363.785 228.052 C 365.661 226.316,366.372 226.106,371.514 225.776 C 387.340 224.762,390.934 223.396,393.264 217.514 C 394.803 213.629,392.907 200.743,389.319 190.701 C 388.869 189.442,388.414 188.001,388.307 187.500 C 387.946 185.801,385.626 180.512,384.975 179.902 C 384.008 178.997,372.378 179.314,369.394 180.328 C 368.791 180.532,366.847 180.937,365.073 181.227 C 361.466 181.816,359.115 182.446,359.115 182.823 C 359.115 182.960,358.884 183.073,358.602 183.073 C 358.320 183.073,357.002 183.631,355.672 184.313 C 348.727 187.876,344.994 191.659,341.285 198.896 C 338.933 203.483,337.138 203.449,328.314 198.649 C 323.968 196.286,318.219 193.536,312.594 191.130 C 310.179 190.098,305.566 188.049,302.344 186.578 C 299.121 185.106,294.399 183.070,291.851 182.052 C 285.697 179.595,283.367 178.396,275.370 173.573 C 271.657 171.334,266.979 168.670,264.974 167.653 C 260.565 165.419,260.273 165.200,254.696 159.992 L 250.272 155.859 249.626 153.906 C 249.270 152.832,248.659 150.614,248.268 148.978 C 247.707 146.632,247.376 145.779,246.702 144.942 C 246.233 144.358,245.612 143.449,245.324 142.922 C 245.036 142.395,244.285 141.223,243.655 140.318 C 242.304 138.374,241.274 136.371,239.531 132.292 C 237.906 128.488,235.415 123.728,232.104 118.099 C 229.277 113.292,225.721 106.640,224.102 103.125 C 223.540 101.908,222.991 100.849,222.881 100.773 C 222.771 100.698,222.598 100.119,222.497 99.487 C 222.396 98.855,222.157 98.038,221.966 97.672 C 221.774 97.305,221.617 96.454,221.616 95.781 C 221.615 94.900,221.490 94.488,221.171 94.309 C 219.503 93.375,225.542 88.536,227.837 88.967 C 231.466 89.650,238.243 88.964,239.774 87.759 C 240.138 87.473,240.649 87.240,240.911 87.240 C 243.609 87.240,247.917 77.329,247.917 71.122 L 247.917 69.866 249.935 69.718 C 254.673 69.371,254.913 68.213,251.849 60.478 C 249.209 53.817,249.095 53.369,249.633 51.758 C 250.247 49.920,250.201 47.400,249.461 42.352 C 248.755 37.542,248.634 37.853,251.556 36.979 C 256.151 35.604,258.520 33.828,258.225 31.980 C 257.549 27.744,253.506 19.761,250.813 17.342 C 250.509 17.070,250.260 16.676,250.260 16.467 C 250.260 15.807,242.975 8.756,240.919 7.426 C 231.625 1.414,220.891 -0.782,206.030 0.287 M241.012 181.520 C 246.746 187.124,249.393 189.464,250.449 189.866 C 250.797 189.998,251.597 190.462,252.229 190.896 C 257.259 194.357,270.176 199.364,279.427 201.438 C 280.501 201.679,282.025 202.041,282.813 202.242 C 286.303 203.132,289.737 203.682,290.803 203.522 C 291.664 203.393,293.027 203.644,296.932 204.649 C 299.694 205.361,303.770 206.318,305.990 206.777 C 308.210 207.236,310.436 207.786,310.938 207.998 C 311.439 208.210,314.193 208.959,317.057 209.662 C 322.165 210.916,325.790 211.977,327.083 212.597 C 327.721 212.902,327.737 212.986,327.877 216.546 C 328.008 219.862,328.083 220.295,328.724 221.463 C 329.111 222.168,329.427 223.002,329.427 223.316 C 329.427 223.631,329.640 224.168,329.900 224.509 C 330.160 224.851,330.880 226.595,331.500 228.385 C 332.120 230.176,333.085 232.724,333.645 234.048 C 334.205 235.372,334.840 237.303,335.055 238.338 C 335.522 240.578,337.208 245.153,338.132 246.691 C 338.494 247.293,339.193 248.607,339.684 249.609 C 340.175 250.612,342.199 254.041,344.182 257.229 C 346.164 260.417,348.431 264.151,349.219 265.528 C 350.007 266.904,351.278 268.983,352.043 270.148 C 354.245 273.497,357.826 279.955,362.172 288.411 C 364.380 292.708,366.353 296.409,366.557 296.635 C 366.761 296.861,366.927 297.249,366.927 297.496 C 366.927 297.744,367.514 299.365,368.231 301.098 C 375.851 319.509,370.485 351.028,355.872 373.698 C 353.291 377.701,352.305 379.117,351.187 380.425 C 350.534 381.189,350.000 381.909,350.000 382.027 C 350.000 382.236,348.706 383.633,344.967 387.458 C 343.940 388.510,342.279 389.910,341.276 390.569 C 340.273 391.229,339.110 392.109,338.690 392.526 C 337.770 393.439,336.267 393.370,333.854 392.303 C 333.066 391.955,330.957 391.381,329.167 391.028 C 325.695 390.342,323.081 389.543,322.414 388.963 C 322.189 388.768,321.566 388.466,321.029 388.294 C 319.846 387.914,319.841 388.636,321.078 380.826 C 321.642 377.264,322.692 370.306,323.411 365.365 C 325.062 354.023,325.422 351.671,325.903 349.089 C 326.250 347.226,327.709 336.990,329.930 320.833 C 330.354 317.754,331.002 312.656,331.370 309.505 C 332.214 302.290,332.681 298.962,333.472 294.531 C 336.952 275.040,336.099 260.300,331.165 254.688 C 330.850 254.329,330.367 253.591,330.091 253.045 C 329.271 251.424,324.145 247.656,322.759 247.656 C 322.438 247.656,321.833 247.368,321.415 247.016 C 320.904 246.587,319.873 246.206,318.277 245.858 C 316.970 245.572,315.682 245.222,315.415 245.079 C 315.149 244.937,313.855 244.647,312.542 244.435 C 311.174 244.215,309.778 243.819,309.277 243.510 C 308.796 243.212,308.194 242.969,307.939 242.969 C 307.411 242.969,300.273 240.924,297.526 239.987 C 294.956 239.109,289.301 237.359,281.120 234.908 C 275.483 233.220,254.841 226.715,250.130 225.143 C 248.366 224.554,241.854 222.141,240.792 221.683 C 239.203 220.997,239.072 220.606,238.675 215.324 C 238.273 209.981,237.284 201.145,236.318 194.271 C 235.966 191.764,235.324 187.198,234.893 184.123 C 234.355 180.288,233.946 178.221,233.591 177.540 C 233.087 176.574,232.891 174.748,233.252 174.387 C 233.465 174.174,233.946 174.615,241.012 181.520 M340.010 197.786 C 339.928 198.001,339.929 198.356,340.013 198.574 C 340.216 199.104,340.885 198.575,340.885 197.885 C 340.885 197.303,340.224 197.229,340.010 197.786 M263.893 280.969 C 264.478 281.268,266.179 281.638,268.106 281.887 C 269.883 282.116,272.074 282.528,272.973 282.802 C 273.873 283.077,275.578 283.482,276.762 283.703 C 277.945 283.924,279.257 284.283,279.676 284.499 C 280.278 284.810,283.105 285.383,284.180 285.412 C 284.535 285.421,284.383 286.374,283.758 288.055 C 283.419 288.967,282.882 290.768,282.564 292.057 C 282.246 293.346,281.884 294.596,281.760 294.835 C 281.432 295.462,279.018 305.616,278.396 308.984 C 278.105 310.560,277.697 312.552,277.491 313.411 C 277.077 315.132,275.671 324.339,275.276 327.924 C 275.138 329.174,274.913 330.405,274.777 330.659 C 274.641 330.914,274.391 332.293,274.222 333.725 C 274.052 335.157,273.801 336.914,273.664 337.630 C 273.527 338.346,272.720 343.020,271.871 348.017 C 271.023 353.014,270.295 357.135,270.254 357.176 C 270.144 357.287,268.182 353.967,262.631 344.271 C 255.713 332.188,254.264 329.485,251.739 323.958 C 250.529 321.309,248.456 316.797,247.132 313.932 C 243.950 307.042,243.769 306.517,243.759 304.140 L 243.750 302.160 246.587 301.872 C 248.226 301.705,249.902 301.371,250.558 301.082 C 251.182 300.806,252.133 300.392,252.672 300.163 C 253.696 299.726,255.990 297.773,255.990 297.338 C 255.990 297.199,256.221 296.760,256.505 296.362 C 256.788 295.965,257.768 293.481,258.683 290.843 C 259.598 288.205,260.538 285.676,260.772 285.224 C 261.006 284.771,261.198 284.053,261.198 283.628 C 261.198 283.203,261.368 282.523,261.575 282.117 C 261.783 281.712,262.013 281.175,262.088 280.924 C 262.262 280.339,262.677 280.350,263.893 280.969 " stroke="none" fill="#000000" fill-rule="evenodd"></path></g></svg>