<svg id="svg" version="1.1" xmlns="http://www.w3.org/2000/svg" xmlns:xlink="http://www.w3.org/1999/xlink" width="400" height="400" viewBox="0, 0, 400,400"><g id="svgg"><path id="path0" d="M243.200 36.100 C 243.200 36.265,242.822 36.400,242.361 36.400 C 241.301 36.400,236.400 41.354,236.400 42.425 C 236.400 42.851,236.224 43.200,236.008 43.200 C 235.770 43.200,235.574 46.252,235.508 50.998 L 235.400 58.796 180.900 58.812 C 150.872 58.820,126.400 58.981,126.400 59.170 C 126.400 59.359,125.694 59.796,124.831 60.141 C 123.058 60.850,120.000 63.735,120.000 64.698 C 120.000 65.048,119.883 65.216,119.739 65.073 C 118.493 63.826,118.246 67.015,118.085 86.449 L 117.924 105.899 234.894 106.198 C 299.227 106.363,352.254 106.373,352.731 106.222 L 353.600 105.946 353.600 74.797 C 353.600 54.462,353.461 43.561,353.200 43.400 C 352.980 43.264,352.800 42.824,352.800 42.423 C 352.800 41.382,348.026 36.599,346.596 36.207 C 345.096 35.796,243.200 35.691,243.200 36.100 M149.608 341.251 C 143.969 343.751,140.164 351.230,142.356 355.505 C 142.552 355.887,143.127 357.067,143.633 358.127 C 144.925 360.831,150.052 364.480,151.719 363.881 C 151.983 363.786,151.443 363.499,150.517 363.243 C 142.548 361.041,139.807 350.393,145.681 344.460 C 147.888 342.231,151.012 340.800,153.672 340.800 C 158.700 340.800,163.177 344.057,164.835 348.920 C 165.225 350.064,165.555 350.640,165.568 350.200 C 165.609 348.857,163.793 345.487,162.162 343.876 C 160.729 342.461,160.100 342.087,157.081 340.856 C 155.360 340.154,151.638 340.351,149.608 341.251 M317.100 340.682 C 317.595 340.778,318.405 340.778,318.900 340.682 C 319.395 340.587,318.990 340.509,318.000 340.509 C 317.010 340.509,316.605 340.587,317.100 340.682 M313.000 341.743 C 309.860 343.212,305.370 349.103,306.516 350.249 C 306.643 350.377,306.939 349.770,307.173 348.902 C 307.985 345.884,312.194 341.615,314.378 341.594 C 314.720 341.591,315.270 341.413,315.600 341.200 C 316.820 340.411,315.062 340.779,313.000 341.743 M320.800 341.281 C 321.350 341.516,322.430 341.982,323.200 342.316 C 324.859 343.037,327.472 345.610,328.028 347.073 C 328.245 347.644,328.528 348.005,328.657 347.877 C 329.837 346.696,322.876 340.760,320.400 340.836 C 320.070 340.846,320.250 341.046,320.800 341.281 M328.856 349.000 C 328.856 349.440,329.011 350.160,329.200 350.600 L 329.544 351.400 329.544 350.600 C 329.544 350.160,329.389 349.440,329.200 349.000 L 328.856 348.200 328.856 349.000 M306.093 352.400 C 306.093 353.170,306.175 353.485,306.276 353.100 C 306.376 352.715,306.376 352.085,306.276 351.700 C 306.175 351.315,306.093 351.630,306.093 352.400 M165.249 354.000 C 165.216 354.330,165.089 355.050,164.967 355.600 C 164.775 356.464,164.807 356.503,165.199 355.888 C 165.448 355.497,165.575 354.777,165.481 354.288 C 165.386 353.800,165.282 353.670,165.249 354.000 M329.000 354.800 C 328.848 355.491,328.814 356.147,328.924 356.257 C 329.034 356.367,329.248 355.891,329.400 355.200 C 329.552 354.509,329.586 353.853,329.476 353.743 C 329.366 353.633,329.152 354.109,329.000 354.800 M306.440 354.600 C 306.386 356.525,309.347 361.027,311.355 362.069 C 311.820 362.311,311.345 361.656,310.300 360.615 C 308.475 358.796,307.743 357.597,306.867 355.000 C 306.583 354.155,306.456 354.036,306.440 354.600 M164.058 357.648 C 163.203 359.895,160.079 362.360,156.600 363.533 C 155.755 363.817,155.636 363.944,156.200 363.960 C 158.852 364.035,165.902 358.169,164.657 356.923 C 164.528 356.795,164.258 357.121,164.058 357.648 M326.786 359.425 C 326.485 359.989,325.734 360.748,325.119 361.112 C 324.503 361.475,324.000 361.926,324.000 362.113 C 324.000 362.301,324.533 362.075,325.184 361.611 C 326.481 360.688,328.270 358.400,327.695 358.400 C 327.497 358.400,327.088 358.861,326.786 359.425 M314.600 363.600 C 315.040 363.789,315.760 363.944,316.200 363.944 L 317.000 363.944 316.200 363.600 C 315.760 363.411,315.040 363.256,314.600 363.256 L 313.800 363.256 314.600 363.600 M319.600 363.600 L 318.600 363.920 319.600 363.932 C 320.150 363.938,320.960 363.789,321.400 363.600 L 322.200 363.256 321.400 363.268 C 320.960 363.274,320.150 363.424,319.600 363.600 M153.300 364.276 C 153.685 364.376,154.315 364.376,154.700 364.276 C 155.085 364.175,154.770 364.093,154.000 364.093 C 153.230 364.093,152.915 364.175,153.300 364.276 " stroke="none" fill="#add186" fill-rule="evenodd"></path><path id="path1" d="M7.380 12.367 C 7.171 12.568,6.645 12.793,6.210 12.867 C 5.776 12.940,4.246 14.167,2.810 15.593 L 0.200 18.185 0.200 24.208 L 0.200 30.231 2.810 32.815 C 5.273 35.255,5.901 35.680,7.100 35.718 C 7.375 35.726,7.600 35.883,7.600 36.067 C 7.600 36.250,17.230 36.400,29.000 36.400 C 50.338 36.400,50.400 36.402,50.400 37.224 C 50.400 37.677,50.580 37.936,50.800 37.800 C 51.042 37.651,51.200 38.196,51.200 39.176 C 51.200 40.069,51.380 40.800,51.600 40.800 C 51.820 40.800,52.000 41.340,52.000 42.000 C 52.000 42.660,52.180 43.200,52.400 43.200 C 52.620 43.200,52.800 43.920,52.800 44.800 C 52.800 45.680,52.960 46.400,53.156 46.400 C 53.352 46.400,53.627 47.075,53.768 47.900 C 54.390 51.551,54.507 52.000,54.844 52.000 C 55.040 52.000,55.200 52.720,55.200 53.600 C 55.200 54.480,55.380 55.200,55.600 55.200 C 55.820 55.200,56.000 55.830,56.000 56.600 C 56.000 57.370,56.180 58.000,56.400 58.000 C 56.620 58.000,56.800 58.540,56.800 59.200 C 56.800 59.860,56.980 60.400,57.200 60.400 C 57.420 60.400,57.600 61.019,57.600 61.776 C 57.600 62.533,57.780 63.264,58.000 63.400 C 58.220 63.536,58.400 64.357,58.400 65.224 C 58.400 66.091,58.550 66.800,58.733 66.800 C 58.916 66.800,59.035 67.205,58.997 67.700 C 58.958 68.195,59.070 68.870,59.244 69.200 C 59.628 69.928,60.817 74.503,61.090 76.300 C 61.199 77.015,61.448 77.600,61.644 77.600 C 61.840 77.600,62.000 78.320,62.000 79.200 C 62.000 80.080,62.180 80.800,62.400 80.800 C 62.620 80.800,62.800 81.419,62.800 82.176 C 62.800 82.933,62.980 83.664,63.200 83.800 C 63.420 83.936,63.600 84.476,63.600 85.000 C 63.600 85.524,63.780 86.064,64.000 86.200 C 64.220 86.336,64.400 87.031,64.400 87.744 C 64.400 88.457,64.574 89.214,64.787 89.427 C 64.999 89.639,65.217 90.395,65.272 91.107 C 65.326 91.818,65.512 92.400,65.685 92.400 C 65.858 92.400,66.000 92.940,66.000 93.600 C 66.000 94.260,66.180 94.800,66.400 94.800 C 66.620 94.800,66.800 95.520,66.800 96.400 C 66.800 97.280,66.980 98.000,67.200 98.000 C 67.420 98.000,67.600 98.540,67.600 99.200 C 67.600 99.860,67.780 100.400,68.000 100.400 C 68.220 100.400,68.400 101.120,68.400 102.000 C 68.400 102.880,68.580 103.600,68.800 103.600 C 69.020 103.600,69.200 104.219,69.200 104.976 C 69.200 106.374,69.738 107.147,70.196 106.407 C 70.358 106.145,74.936 106.000,83.024 106.000 C 91.141 106.000,95.600 105.858,95.600 105.600 C 95.600 105.380,95.420 105.200,95.200 105.200 C 94.980 105.200,94.800 104.581,94.800 103.824 C 94.800 103.067,94.620 102.336,94.400 102.200 C 94.180 102.064,94.000 101.524,94.000 101.000 C 94.000 100.476,93.820 99.936,93.600 99.800 C 93.380 99.664,93.200 98.843,93.200 97.976 C 93.200 97.109,93.020 96.400,92.800 96.400 C 92.580 96.400,92.400 95.759,92.400 94.976 C 92.400 94.129,92.238 93.653,92.000 93.800 C 91.762 93.947,91.600 93.479,91.600 92.647 C 91.600 91.877,91.450 91.154,91.266 91.041 C 91.082 90.927,90.963 90.421,91.001 89.917 C 91.039 89.413,90.837 88.438,90.551 87.751 C 90.265 87.064,90.140 86.393,90.273 86.260 C 90.405 86.128,90.340 85.790,90.127 85.510 C 89.592 84.804,88.800 81.922,88.800 80.677 C 88.800 80.111,88.620 79.536,88.400 79.400 C 88.180 79.264,88.000 78.634,88.000 78.000 C 88.000 77.366,87.820 76.736,87.600 76.600 C 87.380 76.464,87.200 75.823,87.200 75.176 C 87.200 74.529,87.020 74.000,86.800 74.000 C 86.580 74.000,86.400 73.280,86.400 72.400 C 86.400 71.520,86.252 70.800,86.071 70.800 C 85.890 70.800,85.496 69.619,85.195 68.177 C 84.894 66.734,84.502 65.463,84.324 65.353 C 84.146 65.243,84.000 64.533,84.000 63.776 C 84.000 63.019,83.820 62.400,83.600 62.400 C 83.380 62.400,83.200 61.871,83.200 61.224 C 83.200 60.577,83.020 59.936,82.800 59.800 C 82.580 59.664,82.400 58.933,82.400 58.176 C 82.400 57.419,82.220 56.800,82.000 56.800 C 81.780 56.800,81.600 56.080,81.600 55.200 C 81.600 54.320,81.440 53.600,81.244 53.600 C 81.048 53.600,80.786 53.015,80.663 52.300 C 80.125 49.189,79.869 48.187,79.563 47.988 C 79.384 47.871,79.193 47.118,79.138 46.314 C 79.084 45.510,78.896 44.941,78.720 45.049 C 78.544 45.158,78.400 44.506,78.400 43.600 C 78.400 42.604,78.242 42.050,78.000 42.200 C 77.762 42.347,77.600 41.871,77.600 41.024 C 77.600 40.241,77.420 39.600,77.200 39.600 C 76.980 39.600,76.800 38.880,76.800 38.000 C 76.800 37.120,76.620 36.400,76.400 36.400 C 76.180 36.400,76.000 35.860,76.000 35.200 C 76.000 34.540,75.843 34.000,75.652 34.000 C 75.461 34.000,75.195 33.235,75.062 32.300 C 74.559 28.771,74.402 27.927,74.181 27.570 C 73.868 27.063,73.539 25.679,73.310 23.900 C 73.203 23.075,72.955 22.400,72.758 22.400 C 72.561 22.400,72.400 21.860,72.400 21.200 C 72.400 20.540,72.243 20.000,72.050 20.000 C 71.858 20.000,71.594 19.472,71.465 18.826 C 71.131 17.157,66.793 12.800,65.465 12.800 C 64.905 12.800,64.336 12.620,64.200 12.400 C 63.879 11.880,7.919 11.847,7.380 12.367 M113.533 273.500 C 113.460 273.665,112.590 274.232,111.600 274.761 C 107.333 277.038,101.424 282.876,100.529 285.700 C 100.407 286.085,100.170 286.400,100.002 286.400 C 99.834 286.400,99.473 286.940,99.200 287.600 C 98.927 288.260,98.545 288.800,98.351 288.800 C 98.158 288.800,98.000 289.160,98.000 289.600 C 98.000 290.040,97.820 290.400,97.600 290.400 C 97.380 290.400,97.221 290.535,97.247 290.700 C 97.395 291.638,97.149 292.816,96.845 292.628 C 96.649 292.507,96.391 292.901,96.269 293.504 C 96.148 294.107,95.828 295.410,95.558 296.400 C 94.924 298.727,94.602 312.800,95.183 312.800 C 95.412 312.800,95.600 313.520,95.600 314.400 C 95.600 315.280,95.780 316.000,96.000 316.000 C 96.220 316.000,96.400 316.540,96.400 317.200 C 96.400 317.860,96.580 318.400,96.800 318.400 C 97.020 318.400,97.200 318.749,97.200 319.176 C 97.200 319.603,97.380 320.064,97.600 320.200 C 97.820 320.336,98.000 320.797,98.000 321.224 C 98.000 321.651,98.159 322.000,98.353 322.000 C 98.548 322.000,98.807 322.315,98.929 322.700 C 99.259 323.740,100.478 325.636,101.508 326.707 C 102.007 327.227,102.354 327.775,102.280 327.926 C 102.206 328.077,103.462 329.497,105.072 331.082 C 106.683 332.667,108.000 333.866,108.000 333.746 C 108.000 333.627,108.529 333.950,109.175 334.464 C 112.055 336.757,114.837 338.337,116.583 338.671 C 117.013 338.753,117.463 338.978,117.583 339.170 C 117.702 339.362,118.250 339.582,118.800 339.660 C 119.787 339.798,120.606 342.000,119.670 342.000 C 119.002 342.000,118.706 344.787,118.534 352.700 C 118.422 357.876,118.504 360.400,118.784 360.400 C 119.013 360.400,119.200 360.929,119.200 361.576 C 119.200 362.223,119.380 362.864,119.600 363.000 C 119.820 363.136,120.000 363.687,120.000 364.224 C 120.000 364.761,120.180 365.200,120.400 365.200 C 120.620 365.200,120.800 365.479,120.800 365.819 C 120.800 366.160,121.160 367.184,121.600 368.094 C 122.040 369.005,122.400 369.997,122.400 370.299 C 122.400 370.600,122.580 370.736,122.800 370.600 C 123.020 370.464,123.200 370.633,123.200 370.976 C 123.200 371.319,123.380 371.600,123.600 371.600 C 123.820 371.600,124.000 371.879,124.000 372.219 C 124.000 372.560,124.408 373.235,124.906 373.719 C 125.404 374.204,126.064 375.095,126.373 375.700 C 126.682 376.305,127.205 376.800,127.534 376.800 C 127.864 376.800,128.022 376.911,127.886 377.048 C 127.590 377.344,128.573 378.400,129.144 378.400 C 129.365 378.400,129.651 378.731,129.780 379.136 C 129.908 379.541,130.505 380.125,131.107 380.433 C 131.708 380.742,132.491 381.311,132.847 381.697 C 133.203 382.084,133.748 382.400,134.059 382.400 C 134.369 382.400,134.883 382.760,135.200 383.200 C 135.517 383.640,136.187 384.000,136.688 384.000 C 137.190 384.000,137.600 384.180,137.600 384.400 C 137.600 384.620,137.870 384.800,138.200 384.800 C 138.530 384.800,138.800 384.980,138.800 385.200 C 138.800 385.420,139.329 385.600,139.976 385.600 C 140.623 385.600,141.264 385.780,141.400 386.000 C 141.536 386.220,142.087 386.400,142.624 386.400 C 143.161 386.400,143.600 386.556,143.600 386.747 C 143.600 387.430,147.110 387.757,154.200 387.735 C 161.402 387.713,164.400 387.425,164.400 386.756 C 164.400 386.560,164.940 386.400,165.600 386.400 C 166.260 386.400,166.800 386.220,166.800 386.000 C 166.800 385.780,167.154 385.600,167.586 385.600 C 168.496 385.600,171.990 383.773,172.644 382.955 C 172.888 382.650,173.344 382.400,173.656 382.400 C 173.968 382.400,174.483 382.040,174.800 381.600 C 175.117 381.160,175.610 380.800,175.895 380.800 C 176.503 380.800,182.400 375.004,182.400 374.406 C 182.400 374.183,182.580 374.000,182.800 374.000 C 183.020 374.000,183.200 373.730,183.200 373.400 C 183.200 373.070,183.380 372.800,183.600 372.800 C 183.820 372.800,184.000 372.530,184.000 372.200 C 184.000 371.870,184.145 371.600,184.323 371.600 C 184.739 371.600,187.200 366.669,187.200 365.834 C 187.200 365.485,187.380 365.200,187.600 365.200 C 187.820 365.200,188.000 364.660,188.000 364.000 C 188.000 363.340,188.161 362.800,188.358 362.800 C 188.977 362.800,189.294 359.645,189.433 352.100 C 189.516 347.607,189.421 344.800,189.184 344.800 C 188.973 344.800,188.800 344.170,188.800 343.400 C 188.800 342.630,188.609 342.000,188.376 342.000 C 188.143 342.000,188.064 341.820,188.200 341.600 C 188.363 341.337,204.708 341.200,235.934 341.200 L 283.421 341.200 283.269 342.800 C 283.185 343.680,282.955 344.400,282.758 344.400 C 282.559 344.400,282.400 347.959,282.400 352.400 C 282.400 357.467,282.547 360.400,282.800 360.400 C 283.020 360.400,283.200 361.019,283.200 361.776 C 283.200 362.533,283.380 363.264,283.600 363.400 C 283.820 363.536,284.000 363.997,284.000 364.424 C 284.000 364.851,284.180 365.200,284.400 365.200 C 284.620 365.200,284.800 365.740,284.800 366.400 C 284.800 367.060,284.980 367.600,285.200 367.600 C 285.420 367.600,285.600 367.960,285.600 368.400 C 285.600 368.840,285.780 369.200,286.000 369.200 C 286.220 369.200,286.400 369.436,286.400 369.725 C 286.400 370.013,286.760 370.636,287.200 371.108 C 287.640 371.580,288.000 372.204,288.000 372.495 C 288.000 372.786,288.360 373.283,288.800 373.600 C 289.240 373.917,289.600 374.324,289.600 374.504 C 289.600 374.972,295.375 380.800,295.838 380.800 C 296.050 380.800,296.483 381.160,296.800 381.600 C 297.117 382.040,297.657 382.400,298.000 382.400 C 298.343 382.400,298.883 382.760,299.200 383.200 C 299.517 383.640,300.097 384.000,300.488 384.000 C 300.880 384.000,301.200 384.180,301.200 384.400 C 301.200 384.620,301.560 384.800,302.000 384.800 C 302.440 384.800,302.800 384.980,302.800 385.200 C 302.800 385.420,303.340 385.600,304.000 385.600 C 304.660 385.600,305.200 385.780,305.200 386.000 C 305.200 386.220,305.740 386.400,306.400 386.400 C 307.060 386.400,307.600 386.580,307.600 386.800 C 307.600 387.020,308.104 387.200,308.720 387.200 C 309.336 387.200,310.028 387.388,310.258 387.618 C 311.133 388.493,328.400 387.673,328.400 386.756 C 328.400 386.560,328.940 386.400,329.600 386.400 C 330.260 386.400,330.800 386.220,330.800 386.000 C 330.800 385.780,331.340 385.600,332.000 385.600 C 332.660 385.600,333.200 385.420,333.200 385.200 C 333.200 384.980,333.560 384.800,334.000 384.800 C 334.440 384.800,334.800 384.620,334.800 384.400 C 334.800 384.180,335.036 384.000,335.325 384.000 C 335.613 384.000,336.236 383.640,336.708 383.200 C 337.180 382.760,337.804 382.400,338.095 382.400 C 338.386 382.400,338.883 382.040,339.200 381.600 C 339.517 381.160,339.920 380.800,340.095 380.800 C 340.564 380.800,346.400 374.882,346.400 374.406 C 346.400 374.183,346.550 374.000,346.732 374.000 C 346.915 374.000,347.320 373.505,347.632 372.900 C 347.945 372.295,348.515 371.451,348.900 371.025 C 349.285 370.598,349.600 370.013,349.600 369.725 C 349.600 369.436,349.780 369.200,350.000 369.200 C 350.220 369.200,350.400 368.840,350.400 368.400 C 350.400 367.960,350.580 367.600,350.800 367.600 C 351.020 367.600,351.200 367.060,351.200 366.400 C 351.200 365.740,351.380 365.200,351.600 365.200 C 351.820 365.200,352.000 364.660,352.000 364.000 C 352.000 363.340,352.180 362.800,352.400 362.800 C 352.620 362.800,352.800 362.271,352.800 361.624 C 352.800 360.977,352.980 360.336,353.200 360.200 C 353.444 360.049,353.600 357.004,353.600 352.400 C 353.600 347.796,353.444 344.751,353.200 344.600 C 352.980 344.464,352.800 343.823,352.800 343.176 C 352.800 342.529,352.659 342.000,352.487 342.000 C 352.315 342.000,352.134 341.505,352.084 340.900 C 352.034 340.295,351.815 339.740,351.597 339.667 C 351.378 339.593,351.200 339.008,351.200 338.367 C 351.200 337.725,351.020 337.200,350.800 337.200 C 350.580 337.200,350.400 336.840,350.400 336.400 C 350.400 335.960,350.220 335.600,350.000 335.600 C 349.780 335.600,349.600 335.280,349.600 334.888 C 349.600 334.497,349.240 333.917,348.800 333.600 C 348.360 333.283,348.000 332.743,348.000 332.400 C 348.000 332.057,347.640 331.517,347.200 331.200 C 346.760 330.883,346.400 330.393,346.400 330.112 C 346.400 329.830,346.220 329.600,346.000 329.600 C 345.780 329.600,345.600 329.406,345.600 329.169 C 345.600 328.695,343.133 326.263,341.372 325.000 C 340.758 324.560,339.846 323.795,339.346 323.300 C 338.846 322.805,338.198 322.400,337.906 322.400 C 337.615 322.400,337.117 322.040,336.800 321.600 C 336.483 321.160,335.903 320.800,335.512 320.800 C 335.120 320.800,334.800 320.620,334.800 320.400 C 334.800 320.180,334.440 320.000,334.000 320.000 C 333.560 320.000,333.200 319.820,333.200 319.600 C 333.200 319.380,332.660 319.200,332.000 319.200 C 331.340 319.200,330.800 319.020,330.800 318.800 C 330.800 318.580,330.440 318.400,330.000 318.400 C 329.560 318.400,329.200 318.257,329.200 318.082 C 329.200 317.907,328.525 317.719,327.700 317.664 C 326.875 317.610,326.140 317.394,326.068 317.186 C 325.985 316.948,289.469 316.805,228.286 316.802 C 163.986 316.798,130.501 316.661,130.238 316.398 C 130.019 316.179,129.156 316.000,128.320 316.000 C 127.484 316.000,126.800 315.820,126.800 315.600 C 126.800 315.380,126.440 315.200,126.000 315.200 C 125.560 315.200,125.200 315.042,125.200 314.849 C 125.200 314.655,124.654 314.271,123.987 313.995 C 123.320 313.718,122.869 313.398,122.985 313.282 C 123.100 313.166,122.836 312.820,122.397 312.513 C 121.959 312.206,121.600 311.695,121.600 311.377 C 121.600 311.060,121.442 310.800,121.249 310.800 C 118.711 310.800,119.774 300.990,122.620 298.144 C 123.159 297.605,123.600 296.992,123.600 296.782 C 123.600 296.572,123.960 296.400,124.400 296.400 C 124.840 296.400,125.200 296.220,125.200 296.000 C 125.200 295.780,125.560 295.600,126.000 295.600 C 126.440 295.600,126.800 295.420,126.800 295.200 C 126.800 294.980,127.520 294.800,128.400 294.800 C 129.280 294.800,130.000 294.620,130.000 294.400 C 130.000 294.180,129.728 294.000,129.395 294.000 C 129.062 294.000,128.477 293.848,128.095 293.663 C 127.713 293.478,126.506 292.893,125.414 292.363 C 124.322 291.833,122.838 290.810,122.117 290.089 C 119.982 287.956,119.621 287.047,116.756 276.600 C 115.946 273.649,115.667 273.200,114.642 273.200 C 114.106 273.200,113.607 273.335,113.533 273.500 M157.081 340.856 C 160.100 342.087,160.729 342.461,162.162 343.876 C 168.143 349.781,166.223 359.835,158.449 363.319 C 153.287 365.632,145.998 363.078,143.633 358.127 C 143.127 357.067,142.552 355.887,142.356 355.505 C 138.734 348.444,149.478 337.756,157.081 340.856 M323.033 341.798 C 330.254 345.331,331.876 354.940,326.208 360.608 C 321.592 365.224,313.659 365.062,309.323 360.262 C 300.716 350.735,311.530 336.171,323.033 341.798 " stroke="none" fill="#772e46" fill-rule="evenodd"></path><path id="path2" d="M265.404 12.935 C 263.875 13.763,262.225 15.240,260.679 17.162 C 257.530 21.077,258.359 29.171,262.322 33.198 C 265.127 36.047,264.821 36.000,280.426 36.000 L 294.400 36.000 294.405 33.500 C 294.408 32.125,294.525 30.550,294.665 30.000 C 294.804 29.450,294.784 29.123,294.619 29.273 C 294.455 29.424,291.590 26.814,288.253 23.473 C 280.478 15.690,277.259 12.800,276.364 12.800 C 275.970 12.800,275.536 12.620,275.400 12.400 C 274.890 11.574,267.151 11.989,265.404 12.935 M306.901 17.112 C 304.662 19.515,305.031 19.790,307.364 17.457 C 308.365 16.456,309.052 15.559,308.892 15.463 C 308.731 15.367,307.835 16.109,306.901 17.112 M300.072 23.993 C 297.804 26.178,297.296 26.800,297.777 26.800 C 298.117 26.800,302.888 21.955,302.717 21.784 C 302.622 21.689,301.432 22.683,300.072 23.993 M82.500 106.300 L 70.000 106.411 70.000 108.006 C 70.000 108.883,70.180 109.600,70.400 109.600 C 70.620 109.600,70.800 110.140,70.800 110.800 C 70.800 111.460,70.980 112.000,71.200 112.000 C 71.420 112.000,71.600 112.720,71.600 113.600 C 71.600 114.480,71.780 115.200,72.000 115.200 C 72.220 115.200,72.400 115.819,72.400 116.576 C 72.400 117.333,72.580 118.064,72.800 118.200 C 73.020 118.336,73.200 118.977,73.200 119.624 C 73.200 120.271,73.380 120.800,73.600 120.800 C 73.820 120.800,74.000 121.430,74.000 122.200 C 74.000 122.970,74.180 123.600,74.400 123.600 C 74.620 123.600,74.800 124.164,74.800 124.854 C 74.800 126.241,75.592 129.200,75.963 129.200 C 76.093 129.200,76.226 129.785,76.257 130.500 C 76.332 132.215,76.738 133.898,77.471 135.532 C 77.799 136.265,77.965 136.969,77.838 137.096 C 77.711 137.223,77.780 137.535,77.992 137.790 C 78.203 138.045,78.420 138.826,78.473 139.527 C 78.527 140.227,78.692 140.800,78.841 140.800 C 78.990 140.800,79.222 141.430,79.356 142.200 C 79.490 142.970,79.710 144.230,79.844 145.000 C 79.978 145.770,80.248 146.400,80.444 146.400 C 80.640 146.400,80.800 147.030,80.800 147.800 C 80.800 148.570,80.960 149.200,81.156 149.200 C 81.352 149.200,81.622 149.830,81.756 150.600 C 81.890 151.370,82.110 152.632,82.244 153.404 C 82.379 154.176,82.649 154.906,82.844 155.027 C 83.040 155.148,83.200 155.867,83.200 156.624 C 83.200 157.381,83.380 158.000,83.600 158.000 C 83.820 158.000,84.000 158.619,84.000 159.376 C 84.000 160.133,84.180 160.864,84.400 161.000 C 84.620 161.136,84.800 161.777,84.800 162.424 C 84.800 163.071,84.980 163.600,85.200 163.600 C 85.420 163.600,85.600 164.331,85.600 165.224 C 85.600 166.204,85.758 166.749,86.000 166.600 C 86.238 166.453,86.400 166.921,86.400 167.753 C 86.400 168.523,86.580 169.264,86.800 169.400 C 87.020 169.536,87.200 170.267,87.200 171.024 C 87.200 171.781,87.380 172.400,87.600 172.400 C 87.820 172.400,88.000 173.030,88.000 173.800 C 88.000 174.570,88.180 175.200,88.400 175.200 C 88.620 175.200,88.800 175.819,88.800 176.576 C 88.800 177.333,88.980 178.064,89.200 178.200 C 89.420 178.336,89.600 178.977,89.600 179.624 C 89.600 180.271,89.780 180.800,90.000 180.800 C 90.220 180.800,90.400 181.419,90.400 182.176 C 90.400 182.933,90.580 183.664,90.800 183.800 C 91.020 183.936,91.200 184.489,91.200 185.029 C 91.200 185.569,91.372 186.323,91.582 186.705 C 91.921 187.323,92.389 189.461,93.069 193.504 C 93.190 194.221,93.449 194.906,93.644 195.027 C 93.840 195.148,94.000 195.766,94.000 196.400 C 94.000 197.034,94.180 197.664,94.400 197.800 C 94.620 197.936,94.800 198.498,94.800 199.050 C 94.800 199.601,94.981 200.391,95.203 200.805 C 95.424 201.219,95.643 202.017,95.690 202.579 C 95.736 203.140,95.915 203.600,96.087 203.600 C 96.259 203.600,96.400 204.129,96.400 204.776 C 96.400 205.423,96.580 206.064,96.800 206.200 C 97.020 206.336,97.200 207.067,97.200 207.824 C 97.200 208.581,97.380 209.200,97.600 209.200 C 97.820 209.200,98.000 209.830,98.000 210.600 C 98.000 211.370,98.180 212.000,98.400 212.000 C 98.620 212.000,98.800 212.720,98.800 213.600 C 98.800 214.480,98.980 215.200,99.200 215.200 C 99.420 215.200,99.600 215.819,99.600 216.576 C 99.600 217.333,99.780 218.064,100.000 218.200 C 100.220 218.336,100.400 218.977,100.400 219.624 C 100.400 220.271,100.580 220.800,100.800 220.800 C 101.020 220.800,101.200 221.430,101.200 222.200 C 101.200 222.970,101.380 223.600,101.600 223.600 C 101.820 223.600,102.000 224.331,102.000 225.224 C 102.000 226.204,102.158 226.749,102.400 226.600 C 102.638 226.453,102.800 226.929,102.800 227.776 C 102.800 228.559,102.980 229.200,103.200 229.200 C 103.420 229.200,103.600 229.920,103.600 230.800 C 103.600 231.680,103.760 232.400,103.956 232.400 C 104.293 232.400,104.410 232.849,105.032 236.500 C 105.173 237.325,105.448 238.000,105.644 238.000 C 105.840 238.000,106.000 238.630,106.000 239.400 C 106.000 240.170,106.180 240.800,106.400 240.800 C 106.620 240.800,106.800 241.520,106.800 242.400 C 106.800 243.280,106.980 244.000,107.200 244.000 C 107.420 244.000,107.600 244.540,107.600 245.200 C 107.600 245.860,107.780 246.400,108.000 246.400 C 108.220 246.400,108.400 246.955,108.400 247.634 C 108.400 248.992,109.490 253.796,110.048 254.895 C 110.241 255.277,110.400 256.031,110.400 256.571 C 110.400 257.111,110.560 257.652,110.756 257.773 C 110.951 257.894,111.221 258.624,111.356 259.396 C 111.490 260.168,111.710 261.430,111.844 262.200 C 111.978 262.970,112.248 263.600,112.444 263.600 C 112.640 263.600,112.800 264.230,112.800 265.000 C 112.800 265.770,112.980 266.400,113.200 266.400 C 113.420 266.400,113.600 267.019,113.600 267.776 C 113.600 268.533,113.780 269.264,114.000 269.400 C 114.220 269.536,114.406 270.132,114.413 270.724 C 114.427 271.905,115.228 273.200,115.944 273.200 C 116.195 273.200,116.400 273.281,116.400 273.380 C 116.400 273.480,116.684 274.605,117.031 275.880 C 117.379 277.156,117.989 279.460,118.389 281.000 C 120.432 288.885,123.253 292.187,128.597 292.952 C 129.475 293.078,130.255 293.365,130.330 293.591 C 130.510 294.130,137.600 294.139,137.600 293.600 C 137.600 293.360,139.200 293.200,141.600 293.200 C 144.000 293.200,145.600 293.040,145.600 292.800 C 145.600 292.562,147.125 292.400,149.376 292.400 C 151.463 292.400,153.263 292.221,153.400 292.000 C 153.537 291.779,155.337 291.600,157.424 291.600 C 159.501 291.600,161.200 291.465,161.200 291.300 C 161.200 291.135,162.505 290.975,164.100 290.946 C 169.166 290.850,175.776 290.317,176.485 289.946 C 176.862 289.749,178.560 289.573,180.259 289.556 C 181.958 289.538,183.757 289.369,184.257 289.178 C 184.757 288.988,186.794 288.803,188.783 288.767 C 190.772 288.730,192.400 288.543,192.400 288.350 C 192.400 288.158,194.099 288.000,196.176 288.000 C 198.263 288.000,200.063 287.821,200.200 287.600 C 200.336 287.380,202.111 287.200,204.144 287.200 C 206.177 287.200,208.011 287.031,208.220 286.825 C 208.429 286.618,210.220 286.416,212.200 286.375 C 214.180 286.334,215.989 286.150,216.220 285.967 C 216.451 285.785,218.210 285.604,220.128 285.566 C 222.047 285.528,223.713 285.341,223.832 285.149 C 223.950 284.957,225.736 284.800,227.800 284.800 C 229.870 284.800,231.664 284.621,231.800 284.400 C 231.936 284.179,233.730 284.000,235.800 284.000 C 237.870 284.000,239.664 283.821,239.800 283.600 C 239.936 283.380,241.657 283.200,243.624 283.200 C 245.874 283.200,247.200 283.043,247.200 282.776 C 247.200 282.543,247.335 282.436,247.500 282.538 C 247.665 282.640,247.753 269.421,247.695 253.162 L 247.590 223.600 249.595 223.600 C 250.698 223.600,251.600 223.424,251.600 223.210 C 251.600 222.995,251.060 222.905,250.400 223.010 C 249.740 223.115,248.685 223.280,248.057 223.379 C 245.036 223.851,240.417 221.583,238.311 218.594 C 235.953 215.249,236.013 216.038,236.006 188.111 L 236.000 162.423 236.950 160.274 C 240.417 152.434,250.825 150.762,256.441 157.141 C 257.298 158.115,258.000 158.722,258.000 158.488 C 258.000 157.854,254.425 154.400,253.768 154.400 C 253.456 154.400,253.200 154.220,253.200 154.000 C 253.200 153.780,252.851 153.600,252.424 153.600 C 251.997 153.600,251.536 153.420,251.400 153.200 C 251.264 152.980,250.353 152.800,249.376 152.800 L 247.600 152.800 247.600 129.664 L 247.600 106.527 238.900 106.265 C 230.829 106.021,110.709 106.048,82.500 106.300 M314.200 153.359 C 310.876 154.643,308.402 156.749,307.340 159.200 C 307.006 159.970,306.568 160.913,306.366 161.295 C 305.169 163.565,306.062 217.200,307.297 217.200 C 307.464 217.200,307.600 217.456,307.600 217.768 C 307.600 218.380,311.033 222.000,311.613 222.000 C 311.805 222.000,311.110 221.145,310.069 220.100 C 306.367 216.383,306.615 218.557,306.492 188.730 L 306.383 162.461 307.342 160.293 C 309.188 156.118,313.572 153.200,317.996 153.200 C 320.894 153.200,323.983 154.516,326.133 156.667 C 327.540 158.073,327.912 158.698,329.144 161.719 C 330.065 163.977,329.759 213.146,328.808 215.685 C 326.598 221.588,319.964 224.704,314.050 222.618 C 313.141 222.297,312.400 222.207,312.400 222.418 C 312.400 222.628,312.749 222.800,313.176 222.800 C 313.603 222.800,314.064 222.980,314.200 223.200 C 314.336 223.420,315.871 223.600,317.612 223.600 C 322.662 223.600,326.951 221.115,328.657 217.200 C 328.993 216.430,329.432 215.487,329.634 215.105 C 330.257 213.925,330.093 162.901,329.460 161.085 C 327.314 154.921,319.889 151.162,314.200 153.359 M180.772 153.683 C 184.525 154.953,187.486 158.028,188.580 161.791 C 189.146 163.737,189.210 167.012,189.112 189.101 L 189.000 214.200 187.967 216.402 C 183.492 225.941,170.100 225.596,166.452 215.848 C 165.402 213.041,165.105 164.397,166.121 161.600 C 168.474 155.122,174.846 151.678,180.772 153.683 M258.612 160.712 C 259.135 162.020,259.202 165.843,259.108 188.874 C 259.049 203.532,259.135 215.440,259.300 215.338 C 259.771 215.047,259.672 161.292,259.200 161.000 C 258.980 160.864,258.800 160.403,258.800 159.976 C 258.800 159.549,258.621 159.200,258.403 159.200 C 258.178 159.200,258.268 159.852,258.612 160.712 M258.014 217.167 C 257.365 218.734,255.132 221.005,253.280 221.983 C 252.466 222.413,252.027 222.773,252.305 222.782 C 254.077 222.844,259.650 217.116,258.721 216.188 C 258.604 216.070,258.285 216.511,258.014 217.167 M262.400 281.200 C 263.176 281.701,263.600 281.701,263.600 281.200 C 263.600 280.980,263.195 280.803,262.700 280.806 C 261.972 280.811,261.915 280.886,262.400 281.200 M253.435 281.944 C 253.318 282.133,253.683 282.237,254.246 282.175 C 255.650 282.021,255.974 281.600,254.690 281.600 C 254.117 281.600,253.552 281.755,253.435 281.944 " stroke="none" fill="#f34c74" fill-rule="evenodd"></path><path id="path3" d="M312.655 12.843 C 312.330 13.307,311.894 13.581,311.685 13.453 C 311.477 13.324,310.989 13.570,310.600 14.000 C 310.211 14.430,309.709 14.668,309.485 14.529 C 309.251 14.384,309.198 14.474,309.362 14.738 C 309.519 14.992,309.427 15.200,309.157 15.200 C 308.887 15.200,308.774 15.307,308.905 15.439 C 309.203 15.737,305.780 19.200,305.187 19.200 C 304.948 19.200,304.851 19.360,304.972 19.555 C 305.092 19.750,304.833 20.003,304.396 20.117 C 303.958 20.231,303.600 20.623,303.600 20.986 C 303.600 21.350,303.420 21.536,303.200 21.400 C 302.980 21.264,302.800 21.347,302.800 21.585 C 302.800 22.125,298.605 26.354,297.929 26.496 C 297.144 26.660,296.463 27.365,296.704 27.762 C 296.825 27.961,296.740 28.010,296.515 27.871 C 295.499 27.243,294.656 29.209,294.477 32.626 L 294.298 36.028 309.249 35.866 C 324.591 35.699,325.211 35.672,325.078 35.177 C 324.982 34.818,326.788 33.200,327.285 33.200 C 327.484 33.200,327.567 33.065,327.469 32.900 C 327.219 32.478,328.632 29.965,328.944 30.277 C 329.085 30.418,329.200 30.053,329.200 29.467 C 329.200 28.880,329.388 28.400,329.619 28.400 C 329.889 28.400,330.015 26.778,329.974 23.804 C 329.938 21.248,329.752 19.306,329.555 19.428 C 329.360 19.548,329.200 19.367,329.200 19.024 C 329.200 18.681,329.009 18.400,328.776 18.400 C 328.543 18.400,328.450 18.243,328.568 18.052 C 328.687 17.860,328.431 17.297,328.000 16.800 C 327.569 16.303,327.313 15.740,327.432 15.548 C 327.550 15.357,327.356 15.200,327.000 15.200 C 326.644 15.200,326.464 15.020,326.600 14.800 C 326.736 14.580,326.477 14.400,326.024 14.400 C 325.571 14.400,325.200 14.220,325.200 14.000 C 325.200 13.780,324.840 13.600,324.400 13.600 C 323.960 13.600,323.600 13.420,323.600 13.200 C 323.600 12.980,323.240 12.800,322.800 12.800 C 322.360 12.800,322.000 12.620,322.000 12.400 C 322.000 11.792,314.285 11.884,313.621 12.500 C 313.190 12.900,313.139 12.900,313.365 12.500 C 313.831 11.675,313.290 11.936,312.655 12.843 M280.800 16.200 C 281.546 16.970,282.247 17.600,282.357 17.600 C 282.467 17.600,281.946 16.970,281.200 16.200 C 280.454 15.430,279.753 14.800,279.643 14.800 C 279.533 14.800,280.054 15.430,280.800 16.200 M263.170 34.512 C 263.703 35.110,264.301 35.600,264.498 35.600 C 264.886 35.600,264.272 34.950,262.998 34.012 C 262.413 33.581,262.458 33.714,263.170 34.512 M76.525 106.299 C 80.004 106.366,85.584 106.366,88.925 106.299 C 92.266 106.232,89.420 106.178,82.600 106.178 C 75.780 106.178,73.046 106.233,76.525 106.299 M300.500 106.300 L 247.600 106.403 247.600 129.601 L 247.600 152.800 249.376 152.800 C 250.353 152.800,251.264 152.980,251.400 153.200 C 251.536 153.420,251.997 153.600,252.424 153.600 C 252.851 153.600,253.200 153.780,253.200 154.000 C 253.200 154.220,253.456 154.400,253.768 154.400 C 254.508 154.400,258.000 157.892,258.000 158.632 C 258.000 158.944,258.180 159.200,258.400 159.200 C 258.620 159.200,258.800 159.549,258.800 159.976 C 258.800 160.403,258.980 160.864,259.200 161.000 C 259.707 161.313,259.752 214.511,259.247 215.505 C 259.052 215.887,258.651 216.740,258.354 217.400 C 257.388 219.553,253.690 222.800,252.205 222.800 C 251.872 222.800,251.600 222.980,251.600 223.200 C 251.600 223.420,250.700 223.600,249.600 223.600 L 247.600 223.600 247.600 252.767 C 247.600 268.809,247.491 282.219,247.357 282.567 C 247.221 282.921,247.320 283.200,247.581 283.200 C 247.837 283.200,247.936 283.020,247.800 282.800 C 247.644 282.548,248.588 282.400,250.353 282.400 C 251.893 282.400,253.264 282.220,253.400 282.000 C 253.536 281.780,254.132 281.603,254.724 281.606 C 255.566 281.611,255.669 281.697,255.200 282.000 C 254.839 282.233,254.790 282.390,255.076 282.394 C 255.338 282.397,255.664 282.220,255.800 282.000 C 255.936 281.780,257.612 281.597,259.524 281.594 C 261.916 281.590,262.813 281.467,262.400 281.200 C 261.993 280.937,263.247 280.810,266.300 280.806 C 269.029 280.802,270.800 280.643,270.800 280.400 C 270.800 280.159,272.475 280.000,275.024 280.000 C 277.737 280.000,279.159 279.857,279.000 279.600 C 278.782 279.248,283.579 278.962,286.200 279.172 C 286.865 279.225,286.899 279.166,286.400 278.824 C 285.970 278.529,286.902 278.411,289.700 278.406 C 292.029 278.402,293.600 278.239,293.600 278.000 C 293.600 277.780,293.881 277.600,294.224 277.600 C 294.606 277.600,294.738 277.793,294.565 278.100 C 294.339 278.500,294.390 278.500,294.821 278.100 C 295.156 277.789,296.533 277.600,298.456 277.600 C 300.159 277.600,301.664 277.420,301.800 277.200 C 301.941 276.971,303.993 276.800,306.590 276.800 C 309.089 276.800,311.193 276.632,311.267 276.427 C 311.340 276.222,313.076 276.008,315.124 275.950 C 317.173 275.892,318.938 275.700,319.048 275.523 C 319.157 275.345,320.756 275.200,322.600 275.200 C 324.444 275.200,326.047 275.048,326.161 274.863 C 326.276 274.677,327.951 274.557,329.885 274.595 C 332.675 274.650,333.501 274.534,333.887 274.032 C 334.237 273.579,334.378 273.548,334.387 273.924 C 334.394 274.212,334.565 274.345,334.767 274.220 C 334.969 274.096,336.274 273.965,337.667 273.931 C 339.060 273.896,340.425 273.695,340.700 273.485 C 341.043 273.222,341.202 273.275,341.206 273.651 C 341.211 274.116,341.265 274.116,341.560 273.651 C 341.814 273.251,342.782 273.117,345.125 273.160 C 346.952 273.193,348.451 273.042,348.594 272.809 C 348.733 272.584,349.027 272.400,349.247 272.400 C 349.467 272.400,349.525 272.598,349.375 272.840 C 349.181 273.154,349.323 273.162,349.870 272.869 C 350.292 272.644,351.979 272.418,353.619 272.369 C 355.258 272.319,356.691 272.141,356.802 271.974 C 356.913 271.806,359.028 271.609,361.502 271.535 C 363.976 271.461,366.000 271.265,366.000 271.100 C 366.000 270.935,366.492 270.800,367.092 270.800 C 368.490 270.800,373.577 268.363,373.590 267.687 C 373.595 267.406,373.869 267.072,374.198 266.946 C 374.526 266.819,374.716 266.588,374.619 266.431 C 374.522 266.274,374.793 265.893,375.221 265.585 C 375.650 265.276,376.000 264.613,376.000 264.112 C 376.000 263.610,376.180 263.200,376.400 263.200 C 376.620 263.200,376.800 262.606,376.800 261.880 C 376.800 261.154,376.960 260.389,377.157 260.180 C 377.353 259.971,377.615 258.720,377.740 257.400 C 378.183 252.721,378.506 250.800,378.851 250.800 C 379.043 250.800,379.200 250.609,379.200 250.376 C 379.200 250.143,379.020 250.064,378.800 250.200 C 378.580 250.336,378.400 250.257,378.400 250.024 C 378.400 249.791,378.580 249.600,378.800 249.600 C 379.020 249.600,379.200 248.891,379.200 248.024 C 379.200 247.157,379.380 246.336,379.600 246.200 C 379.820 246.064,380.000 245.009,380.000 243.856 C 380.000 242.703,380.164 241.589,380.365 241.380 C 380.565 241.171,380.821 240.010,380.932 238.800 C 381.278 235.043,381.633 232.647,382.024 231.440 C 382.231 230.802,382.400 229.756,382.400 229.114 C 382.400 228.472,382.598 227.578,382.840 227.125 C 383.160 226.528,383.160 226.378,382.840 226.575 C 382.598 226.725,382.400 226.657,382.400 226.424 C 382.400 226.191,382.580 226.000,382.800 226.000 C 383.020 226.000,383.200 225.358,383.200 224.574 C 383.200 223.789,383.367 222.835,383.571 222.454 C 383.775 222.072,383.997 220.659,384.064 219.314 C 384.130 217.968,384.323 216.953,384.493 217.057 C 384.662 217.162,384.800 216.347,384.800 215.247 C 384.800 214.147,384.980 213.136,385.200 213.000 C 385.420 212.864,385.600 211.942,385.600 210.950 C 385.600 209.959,385.786 208.799,386.014 208.374 C 386.304 207.833,386.299 207.600,386.000 207.600 C 385.701 207.600,385.696 207.367,385.986 206.826 C 386.214 206.401,386.400 205.601,386.400 205.050 C 386.400 204.498,386.547 203.956,386.728 203.845 C 386.908 203.733,387.098 202.699,387.151 201.545 C 387.203 200.392,387.330 199.314,387.432 199.149 C 387.533 198.984,387.710 198.073,387.825 197.125 C 387.939 196.176,388.137 194.950,388.265 194.400 C 388.393 193.850,388.558 192.950,388.631 192.400 C 388.704 191.850,388.865 190.770,388.988 190.000 C 389.111 189.230,389.312 187.970,389.436 187.200 C 389.559 186.430,389.761 185.530,389.885 185.200 C 390.009 184.870,390.178 183.880,390.261 183.000 C 390.345 182.120,390.523 180.950,390.657 180.400 C 390.924 179.308,390.976 178.888,391.417 174.300 C 391.581 172.595,391.869 171.200,392.058 171.200 C 392.246 171.200,392.400 170.135,392.400 168.833 C 392.400 167.315,392.579 166.394,392.900 166.264 C 393.289 166.106,393.279 165.976,392.857 165.680 C 392.478 165.415,392.448 165.218,392.757 165.026 C 393.001 164.876,393.200 164.144,393.200 163.400 C 393.200 162.656,393.351 161.954,393.536 161.840 C 393.721 161.725,393.905 160.693,393.946 159.545 C 393.986 158.397,394.165 157.265,394.343 157.029 C 394.521 156.793,394.711 155.700,394.766 154.600 C 394.821 153.500,395.031 152.540,395.233 152.467 C 395.435 152.393,395.600 151.369,395.600 150.190 C 395.600 149.012,395.789 147.931,396.019 147.788 C 396.306 147.611,396.291 147.350,395.970 146.964 C 395.634 146.559,395.628 146.400,395.951 146.400 C 396.207 146.400,396.400 145.723,396.400 144.824 C 396.400 143.957,396.580 143.136,396.800 143.000 C 397.020 142.864,397.200 141.803,397.200 140.643 C 397.200 139.483,397.326 138.407,397.480 138.253 C 397.635 138.099,397.831 137.034,397.917 135.886 C 398.002 134.739,398.258 133.575,398.485 133.300 C 398.780 132.942,398.742 132.798,398.349 132.794 C 397.968 132.790,397.939 132.698,398.256 132.494 C 398.507 132.332,398.777 131.210,398.856 130.000 C 398.935 128.790,399.161 127.683,399.358 127.541 C 399.555 127.398,399.801 124.248,399.905 120.541 L 400.093 113.800 398.900 111.514 C 398.243 110.256,397.634 109.299,397.547 109.387 C 397.459 109.475,396.672 108.929,395.798 108.173 C 394.924 107.418,393.802 106.800,393.304 106.800 C 392.807 106.800,392.400 106.620,392.400 106.400 C 392.400 106.137,385.699 106.034,372.900 106.099 C 362.175 106.153,329.595 106.243,300.500 106.300 M321.572 153.287 C 325.060 154.478,328.261 157.642,329.460 161.085 C 330.093 162.901,330.257 213.925,329.634 215.105 C 329.432 215.487,328.993 216.430,328.657 217.200 C 326.951 221.115,322.662 223.600,317.612 223.600 C 315.871 223.600,314.336 223.420,314.200 223.200 C 314.064 222.980,313.603 222.800,313.176 222.800 C 312.749 222.800,312.400 222.620,312.400 222.400 C 312.400 222.180,312.144 222.000,311.832 222.000 C 311.092 222.000,307.600 218.508,307.600 217.768 C 307.600 217.456,307.464 217.200,307.297 217.200 C 306.062 217.200,305.169 163.565,306.366 161.295 C 306.568 160.913,307.006 159.970,307.340 159.200 C 309.398 154.453,316.428 151.532,321.572 153.287 M115.981 274.100 C 116.181 274.595,116.456 275.516,116.592 276.147 C 116.728 276.778,116.945 277.188,117.075 277.059 C 117.400 276.733,116.376 273.200,115.957 273.200 C 115.770 273.200,115.781 273.605,115.981 274.100 M117.205 278.033 C 117.213 278.804,118.718 283.523,118.764 282.920 C 118.810 282.310,117.681 277.948,117.406 277.673 C 117.293 277.559,117.202 277.722,117.205 278.033 M118.831 284.000 C 118.738 286.414,122.189 290.799,125.414 292.363 C 126.506 292.893,127.713 293.478,128.095 293.663 C 129.006 294.105,130.400 294.095,130.400 293.647 C 130.400 293.244,129.026 292.814,127.712 292.805 C 124.745 292.787,121.412 289.466,119.276 284.400 C 119.044 283.850,118.844 283.670,118.831 284.000 " stroke="none" fill="#dc2c4c" fill-rule="evenodd"></path><path id="path4" d="M235.199 53.281 C 235.089 56.516,235.140 59.022,235.312 58.850 C 235.483 58.677,235.573 56.031,235.510 52.968 L 235.397 47.400 235.199 53.281 M172.997 154.013 C 169.859 155.220,167.488 157.837,166.121 161.600 C 165.105 164.397,165.402 213.041,166.452 215.848 C 170.100 225.596,183.492 225.941,187.967 216.402 L 189.000 214.200 189.112 189.101 C 189.210 167.012,189.146 163.737,188.580 161.791 C 186.630 155.082,179.484 151.516,172.997 154.013 M243.384 154.017 C 240.767 155.025,238.144 157.575,236.950 160.274 L 236.000 162.423 236.006 188.111 C 236.013 216.038,235.953 215.249,238.311 218.594 C 243.357 225.753,254.509 224.574,258.229 216.488 L 259.200 214.376 259.200 188.012 C 259.200 170.867,259.060 161.561,258.800 161.400 C 258.580 161.264,258.400 160.881,258.400 160.548 C 258.400 155.816,249.157 151.796,243.384 154.017 M314.785 153.742 C 311.136 154.924,308.217 157.820,306.918 161.547 C 305.941 164.352,306.200 213.035,307.207 215.726 C 311.146 226.256,325.615 225.409,329.160 214.440 C 330.050 211.689,329.746 163.787,328.823 161.262 C 326.630 155.262,320.398 151.924,314.785 153.742 M150.800 341.281 C 150.250 341.516,149.252 341.945,148.583 342.234 C 144.139 344.151,141.282 350.838,142.883 355.572 C 146.851 367.298,162.783 366.213,165.245 354.049 C 166.795 346.387,157.688 338.338,150.800 341.281 M314.280 341.606 C 311.989 342.477,309.977 343.947,308.786 345.620 C 300.718 356.950,316.137 370.183,325.960 360.360 C 330.492 355.828,330.536 349.012,326.064 344.425 C 324.722 343.050,323.919 342.576,320.681 341.256 C 319.101 340.612,316.525 340.753,314.280 341.606 " stroke="none" fill="#e3ebfb" fill-rule="evenodd"></path></g></svg>